<?xml version="1.0" encoding="UTF-8"?>
<svg width="128px" height="23px" viewBox="0 0 128 23" version="1.1" xmlns="http://www.w3.org/2000/svg" xmlns:xlink="http://www.w3.org/1999/xlink">
    <!-- Generator: Sketch 55.1 (78136) - https://sketchapp.com -->
    <title>CML-logo-BW</title>
    <desc>Created with Sketch.</desc>
    <g id="zeplin" stroke="none" stroke-width="1" fill="none" fill-rule="evenodd">
        <g id="My-Account" transform="translate(-36.000000, -19.000000)" fill="#FFFFFF" fill-rule="nonzero">
            <g id="Group-18">
                <g id="Group-16">
                    <g id="sidebar">
                        <g id="Admin-logo">
                            <g id="CML-logo-BW" transform="translate(36.000000, 19.000000)">
                                <path d="M0.203497615,13.5348465 C0.295071542,13.2614152 0.390715421,12.987984 0.478219396,12.7062669 C0.567123707,12.3445229 0.80380408,12.0387709 1.1285282,11.8661755 C1.45325233,11.69358 1.83499891,11.6706292 2.17742448,11.8031153 C3.20508744,12.115904 4.22664547,12.43905 5.25023847,12.7642675 C5.59382095,12.8518612 5.8849637,13.0833238 6.05168372,13.4014278 C6.21840373,13.7195319 6.24513857,14.094584 6.12527822,14.4338552 C5.97265501,14.968289 5.81392687,15.5006514 5.65112878,16.0537282 C6.91281399,16.9651657 8.28235294,17.6943157 9.81875994,17.9967472 C10.7385692,18.1790347 11.688903,18.2038921 12.6249921,18.2950358 C12.8284897,18.3157503 12.9444833,18.2515354 12.9994277,18.0174617 C13.0950715,17.6031719 13.2395548,17.1888821 13.3636884,16.7745924 C13.6221304,15.9107982 14.2672178,15.5482947 15.105628,15.8072258 C16.1190461,16.122086 17.1324642,16.4410891 18.1458824,16.7642351 C18.9151033,17.0107375 19.2203498,17.6570296 19.027027,18.4566088 C18.5508426,20.4369139 17.2118283,21.420852 15.3498251,21.8040701 C14.845151,21.9076425 14.332337,21.947 13.821558,22.011215 C13.7570725,22.0257315 13.6943062,22.0472601 13.6343402,22.0754299 L12.1427027,22.0754299 C11.6685533,22.0070721 11.1944038,21.9449286 10.7182194,21.868285 C8.44900156,21.5100259 6.25062791,20.784847 4.20629571,19.7201926 C3.00751867,19.1448484 1.96983942,18.2723333 1.18842607,17.1826678 C0.720205454,16.4880593 0.382147319,15.7113378 0.191287758,14.8916454 L0.203497615,13.5348465 Z" id="Shape"></path>
                                <path d="M22.4539269,12.2215479 C22.3623529,12.7207671 22.2829889,13.2220577 22.1751351,13.7150625 C21.8538384,15.1708412 21.2467929,16.5454963 20.390461,17.7564591 C20.3578967,17.7821826 20.3223591,17.8037482 20.2846423,17.820674 C20.237104,17.6096496 20.1759215,17.4020526 20.1014944,17.1992394 C20.0198039,16.9505955 19.8935368,16.7195222 19.7290938,16.5177327 C19.4808267,16.265016 19.4747218,16.103443 19.6802544,15.8051543 C20.8564706,14.0879233 21.2593959,12.1718332 21.0558983,10.0983129 C20.8951351,8.44115386 20.4454054,6.88342436 19.5093164,5.50176801 C18.1092528,3.41374762 16.1475358,2.164664 13.7320191,1.65923049 C11.5872384,1.17465424 9.34296643,1.48537505 7.40324324,2.53545333 C5.14238474,3.74517943 3.78098569,5.66955537 3.26613672,8.1967229 C3.09316375,9.04394546 3.06263911,9.92016831 2.97310016,10.8274629 C2.19777424,10.5271028 1.37157393,10.3779585 0.47618442,10.8999636 C0.535198728,10.3220294 0.563688394,9.82695311 0.641017488,9.34016264 C0.912627816,7.56775657 1.61726195,5.89319271 2.69023847,4.47018651 C4.3471459,2.20001656 6.80504159,0.673152312 9.54607313,0.211287778 C10.0019078,0.130501274 10.4638474,0.072500708 10.921717,0.0041428976 L12.0755485,0.0041428976 C12.1403585,0.0348982772 12.2087355,0.0571710865 12.2790461,0.0704292592 C13.7209176,0.149058124 15.1301321,0.537325546 16.4141176,1.2097261 C19.4606073,2.77244731 21.618747,5.68979942 22.2524642,9.10194603 C22.3175835,9.47687826 22.3867727,9.84973905 22.4559618,10.2246713 L22.4539269,12.2215479 Z" id="Shape"></path>
                                <path d="M10.3905882,12.0516891 C8.5591097,10.9911073 8.2009539,9.19930412 8.69138315,7.65814622 C9.12890302,6.28270421 10.4231479,5.19105069 12.2586963,5.30912328 C13.7278895,5.39021976 14.9765303,6.42999294 15.3457552,7.87979124 C15.7140859,9.47273536 15.3111606,11.0656795 13.5570111,12.0516891 C14.7108426,12.4784076 15.6510016,13.1599142 16.2798092,14.2349962 C16.3978378,14.442141 16.4934817,14.6492859 16.6013355,14.8564308 L16.5199364,14.9372173 C16.2110213,14.8635098 15.9060478,14.7736276 15.6062321,14.667929 C14.1145946,14.0692803 12.631097,14.9558603 12.205787,16.4410891 C12.0144992,17.1101671 11.9921145,17.1474532 11.2981876,17.0438807 C10.4796462,16.9295164 9.66934639,16.7606769 8.87249603,16.5384472 C8.34950715,16.3872315 7.86925278,16.080657 7.3645787,15.8569406 C7.16108108,15.7699397 7.17939587,15.6663673 7.26079491,15.4985799 C7.96286169,14.0299227 8.85214626,12.7394101 10.3905882,12.0516891 Z" id="Shape"></path>
                                <path d="M18.1092528,12.6130517 C18.5020032,12.845054 18.8967886,13.0521989 19.2590143,13.3049156 C19.4461402,13.4506501 19.6042932,13.6313217 19.7250238,13.837278 C19.7664755,13.9544537 19.7568518,14.0840647 19.6985692,14.1935672 C19.5601908,14.4669984 19.3973927,14.7300724 19.2325596,14.991075 C19.1696637,15.113311 19.0607571,15.2043571 18.9307379,15.2433982 C18.8007186,15.2824394 18.6607035,15.2661376 18.5427027,15.1982198 C18.3352489,15.1145439 18.1224414,15.0453357 17.9057552,14.991075 C17.6886562,14.9471318 17.510608,14.7895324 17.4377107,14.5767852 C17.0613486,13.5883011 16.3726406,12.7553468 15.4800636,12.2091192 C15.189062,12.0206174 15.189062,11.9564025 15.4373291,11.6953999 C16.1586157,10.9775787 16.5234535,9.96694685 16.4303975,8.94451592 C16.3917329,8.49294008 16.1882353,8.05586438 16.0539269,7.61257434 C16.0172973,7.49035886 15.9684579,7.37435773 15.9196184,7.24385646 C17.4723052,7.03671158 18.6932909,7.69336084 19.1877901,9.02323097 C19.6110652,10.1583849 19.4686169,11.5793988 18.1092528,12.6130517 Z" id="Shape"></path>
                                <path d="M8.18670906,7.29771412 C7.22009539,9.02737387 7.52127186,10.5581745 8.8663911,11.9481167 C8.06972305,12.3873916 7.38745009,13.013721 6.87618442,13.7751345 C6.85732604,13.2866473 6.70818933,12.8126001 6.44476948,12.4038354 C6.19807085,11.9929354 5.80998157,11.6901907 5.35605723,11.5545414 C5.16042547,11.5106694 5.00416858,11.3611553 4.949062,11.165109 C4.48101749,9.7585953 4.92871224,8.34172432 6.20057234,7.5897884 C6.78868045,7.23764211 7.45004769,7.22521342 8.18670906,7.29771412 Z" id="Shape"></path>
                                <path d="M28.8295072,16.1800866 C28.1334531,15.790651 27.5668044,15.1994262 27.2015262,14.4814986 C26.8081929,13.6855798 26.6125514,12.8036388 26.6317329,11.9129021 C26.6139769,11.0096628 26.8197174,10.1163886 27.2300159,9.31530526 C27.6116818,8.57947383 28.1948718,7.97215957 28.9088712,7.56700247 C29.6706732,7.14347021 30.5277383,6.92929031 31.3956121,6.94556783 C31.8990597,6.94579488 32.4001545,7.01547738 32.8852146,7.15271271 C33.349942,7.28032055 33.7940947,7.4756781 34.2038792,7.73271837 C34.5723295,7.93833183 34.8050432,8.32840182 34.814372,8.75601408 C34.8245454,9.00139767 34.7528208,9.24306138 34.6108744,9.44166363 C34.489441,9.60995283 34.2949996,9.70736974 34.0899205,9.70266618 C33.9391962,9.6999362 33.7904954,9.6668469 33.6524006,9.60530809 C33.495536,9.53842384 33.34325,9.46091616 33.196566,9.37330582 C32.9427228,9.2189195 32.6765569,9.08656952 32.4008903,8.9776591 C32.1205778,8.87725185 31.825014,8.82816029 31.5278855,8.83265768 C30.7423847,8.83265768 30.1400318,9.09366023 29.7147218,9.61566533 C29.2894118,10.1376704 29.0798092,10.8875349 29.0798092,11.8652587 C29.0798092,12.8429826 29.2833068,13.574204 29.7147218,14.0962091 C30.1461367,14.6182142 30.7423847,14.8792167 31.5278855,14.8792167 C31.8157075,14.8835181 32.1018894,14.8343813 32.3724006,14.7342153 C32.6515817,14.6197664 32.9234443,14.4876253 33.1863911,14.3385686 C33.3446884,14.2392968 33.5099708,14.1520587 33.6808903,14.077566 C33.8205287,14.0208266 33.9701673,13.9940295 34.1204452,13.998851 C34.3239775,13.9994533 34.514805,14.0996604 34.6332591,14.2681393 C34.7749005,14.4637451 34.8466925,14.7027127 34.8367568,14.9455031 C34.8417547,15.1451204 34.7924572,15.3422603 34.6943084,15.5151515 C34.5779886,15.6975112 34.418423,15.8471136 34.2303339,15.9501558 C33.8074832,16.2206974 33.347226,16.4252761 32.8648649,16.5570903 C32.3457585,16.7062999 31.8088481,16.7815877 31.2694436,16.7808067 C30.4187576,16.7989495 29.578018,16.5919567 28.8295072,16.1800866 L28.8295072,16.1800866 Z" id="Shape"></path>
                                <path d="M43.3144674,7.92329166 C43.9412401,8.57372658 44.2546264,9.56249815 44.2546264,10.8896063 L44.2546264,15.6021524 C44.2731383,15.9095536 44.1629834,16.2105716 43.9514149,16.4307319 C43.723575,16.6397548 43.4233525,16.747834 43.1170747,16.731092 C42.8155485,16.7443517 42.5216964,16.6321821 42.3030843,16.4203746 C42.0917613,16.2070112 41.9780725,15.9131862 41.9896979,15.6104382 L41.9896979,15.1961484 C41.7824666,15.6887518 41.4259496,16.101014 40.9722099,16.3727313 C40.4865831,16.6627956 39.931602,16.8104799 39.3686486,16.7994498 C38.7835689,16.8071181 38.204939,16.6744155 37.6796184,16.4120888 C37.1939996,16.1740679 36.7805774,15.8069136 36.4830525,15.3494356 C36.1935011,14.9029424 36.0418337,14.3784637 36.0475676,13.8434923 C36.0475676,13.1530094 36.2212189,12.6054564 36.5685215,12.2008334 C36.9158241,11.7962104 37.4822258,11.5068981 38.2677266,11.3328964 C39.3365773,11.1264549 40.4238581,11.0354972 41.5114785,11.0615366 L41.985628,11.0615366 L41.985628,10.6182466 C41.985628,9.98576418 41.8533545,9.52521207 41.5888076,9.2365902 C41.3242607,8.94796833 40.8942024,8.80296692 40.2986328,8.80158595 C39.9191369,8.80366177 39.5417672,8.85943429 39.1773609,8.96730186 C38.7988553,9.07501719 38.3491256,9.23451875 37.8302067,9.43959218 C37.6094536,9.57242725 37.364269,9.65773532 37.1098251,9.69023749 C36.8969267,9.68853362 36.6960094,9.58969574 36.5624165,9.42094914 C36.4117904,9.2374446 36.3341115,9.00318714 36.3446741,8.76429987 C36.3396028,8.56212809 36.3957267,8.36325859 36.5054372,8.19465145 C36.6484035,8.00229578 36.8338371,7.84689052 37.0467409,7.74100417 C37.5462785,7.47566991 38.0788735,7.28055502 38.6299523,7.1609985 C39.2249403,7.02382027 39.8330574,6.95434593 40.4431161,6.95385362 C41.7319343,6.95523459 42.6890514,7.2783806 43.3144674,7.92329166 Z M41.3995548,14.3944977 C41.8070004,13.9390628 42.021289,13.3382766 41.9958029,12.7228385 L41.9958029,12.3085488 L41.6498569,12.3085488 C40.9899346,12.2957455 40.3300205,12.3345265 39.67593,12.4245499 C39.3096331,12.457917 38.9605767,12.5981719 38.6706518,12.8284824 C38.4625506,13.0364809 38.3521381,13.3253796 38.3674404,13.6218473 C38.3554059,14.0068394 38.5110707,14.3775779 38.7927504,14.6347858 C39.080715,14.9003366 39.458477,15.0421237 39.846868,15.0304325 C40.4300764,15.0549391 40.9955439,14.8233403 41.3995548,14.3944977 L41.3995548,14.3944977 Z" id="Shape"></path>
                                <path d="M46.9957393,16.4410891 C46.764707,16.2192688 46.6430639,15.9040131 46.6640382,15.5814379 L46.6640382,4.05589675 C46.6420572,3.73619618 46.7641165,3.42367333 46.9957393,3.20660274 C47.2324612,3.00719921 47.5332433,2.90391195 47.8402544,2.91659991 C48.1502356,2.90483211 48.4538958,3.00786633 48.6949444,3.20660274 C48.9326368,3.42004379 49.0590364,3.73404786 49.0368203,4.05589675 L49.0368203,15.5855808 C49.0572834,15.9101533 48.9314545,16.2265517 48.6949444,16.445232 C48.4564804,16.649747 48.1518799,16.7567915 47.8402544,16.7455921 C47.5310138,16.7566881 47.2291688,16.6478533 46.9957393,16.4410891 Z" id="Shape"></path>
                                <path d="M51.8247377,16.4410891 C51.5929567,16.21965 51.470547,15.9043421 51.4910016,15.5814379 L51.4910016,4.05589675 C51.4698361,3.73590905 51.5926154,3.42345947 51.8247377,3.20660274 C52.0612683,3.00685003 52.3621861,2.90351618 52.6692528,2.91659991 C52.9785419,2.90533751 53.2813935,3.00834263 53.5219078,3.20660274 C53.7580942,3.4208494 53.8829424,3.73473621 53.8597138,4.05589675 L53.8597138,15.5855808 C53.8801769,15.9101533 53.754348,16.2265517 53.5178378,16.445232 C53.2799006,16.6492608 52.9761149,16.7562737 52.6651828,16.7455921 C52.3573314,16.7556309 52.0571268,16.6468633 51.8247377,16.4410891 Z" id="Shape"></path>
                                <path d="M69.8505564,10.7156046 L69.8505564,15.9501558 C69.8639902,16.1606546 69.790185,16.3672566 69.6470588,16.5198042 C69.4973037,16.6602499 69.2990622,16.7347128 69.0955803,16.7269491 C68.8898342,16.7335868 68.6894619,16.6594182 68.5359618,16.5198042 C68.3858485,16.3709221 68.3064336,16.1631603 68.3182194,15.9501558 L68.3182194,10.7528907 C68.3182194,9.89116802 68.1655962,9.26559048 67.8623847,8.8885868 C67.5591733,8.51158312 67.0850238,8.30858114 66.4379014,8.30858114 C65.7438474,8.27484006 65.0728106,8.56638234 64.6165978,9.09987458 C64.172973,9.62878451 63.9511606,10.3434343 63.9511606,11.2438241 L63.9511606,15.9584416 C63.9629463,16.1714461 63.8835315,16.3792079 63.7334181,16.52809 C63.580138,16.6680778 63.3796131,16.7423029 63.1737997,16.7352349 C62.97087,16.7433589 62.7731294,16.668809 62.6243561,16.52809 C62.4805732,16.3759583 62.406659,16.1690511 62.4208585,15.9584416 L62.4208585,10.7528907 C62.4208585,9.89116802 62.2702703,9.26559048 61.9650238,8.8885868 C61.6597774,8.51158312 61.181558,8.30858114 60.5242607,8.30858114 C59.8333388,8.27923946 59.1665806,8.57022329 58.711097,9.09987458 C58.2620456,9.62878451 58.0375199,10.3434343 58.0375199,11.2438241 L58.0375199,15.9584416 C58.0509536,16.1689404 57.9771484,16.3755424 57.8340223,16.52809 C57.6842672,16.6685356 57.4860257,16.7429986 57.2825437,16.7352349 C57.0767976,16.7418726 56.8764253,16.667704 56.7229253,16.52809 C56.5728119,16.3792079 56.4933971,16.1714461 56.5051828,15.9584416 L56.5051828,7.79900473 C56.4970642,7.58905502 56.5760914,7.38531477 56.7229253,7.23764211 C56.8751785,7.09591973 57.0764228,7.02142837 57.2825437,7.03049723 C57.4798073,7.02367592 57.6713887,7.09839434 57.8136725,7.23764211 C57.9551202,7.38282784 58.0291281,7.58246385 58.0171701,7.78657604 L58.0171701,8.7145851 C58.2739523,8.18486621 58.6761708,7.74233919 59.1750715,7.44064409 C59.693892,7.13711267 60.2841289,6.98314919 60.8824165,6.9952826 C62.3231797,6.9952826 63.2653736,7.61671724 63.7089984,8.85958652 C63.9745734,8.29552194 64.3997822,7.82518023 64.9299841,7.5090019 C65.4919251,7.16841495 66.1360412,6.99409819 66.7899523,7.00563984 C68.8303551,6.99321115 69.8505564,8.22986608 69.8505564,10.7156046 Z" id="Shape"></path>
                                <path d="M79.9827027,7.04499737 C80.1708178,7.04446124 80.3528425,7.112841 80.4955167,7.23764211 C80.6406296,7.35406836 80.7247539,7.53221355 80.7234835,7.72028968 C80.7247934,7.8289634 80.69813,7.93609973 80.6461049,8.031007 L75.3144674,19.7346927 C75.2565192,19.8694729 75.1610014,19.983988 75.0397456,20.0640531 C74.9296649,20.13784 74.8011696,20.1780856 74.66938,20.1800784 C74.4856065,20.1815231 74.3073577,20.1161446 74.1667409,19.9956953 C74.0255474,19.8816285 73.944967,19.706847 73.9489984,19.5234049 C73.9497435,19.4152465 73.9755399,19.3087919 74.0242925,19.2126876 L75.353132,16.2960877 L71.596566,8.031007 C71.5466503,7.94284538 71.5206643,7.84275766 71.5212614,7.74100417 C71.5246096,7.54209559 71.6186147,7.35607431 71.7756439,7.23764211 C71.9324818,7.10381225 72.130608,7.03049722 72.3352623,7.03049722 C72.4672518,7.03115642 72.5961051,7.07151419 72.705628,7.14649836 C72.8272247,7.22525685 72.922899,7.33923819 72.9803498,7.47378727 L76.1508426,14.7238581 L79.3193005,7.51935915 C79.4172684,7.23251562 79.6843853,7.04151532 79.9827027,7.04499737 L79.9827027,7.04499737 Z" id="Shape"></path>
                                <path d="M82.6302067,16.5198042 C82.4794006,16.3713899 82.3998573,16.1632922 82.4124642,15.9501558 L82.4124642,3.68510742 C82.3993006,3.47188258 82.4789315,3.26355545 82.6302067,3.115459 C82.7830381,2.97471099 82.9838759,2.90037013 83.1898251,2.90831412 C83.3898236,2.90328519 83.5839164,2.97756017 83.7311288,3.115459 C83.8814716,3.26418633 83.9609289,3.47205903 83.9488712,3.68510742 L83.9488712,15.9501558 C83.960657,16.1631603 83.8812421,16.3709221 83.7311288,16.5198042 C83.5834666,16.6569574 83.3896795,16.7311155 83.1898251,16.7269491 C82.9840117,16.7340171 82.7834868,16.659792 82.6302067,16.5198042 Z" id="Shape"></path>
                                <path d="M86.8507472,4.72704616 C86.6591067,4.54170977 86.5552782,4.28126081 86.5658506,4.01239633 C86.5579947,3.75007416 86.6618588,3.49708802 86.8507472,3.31846098 C87.2805469,2.95647529 87.9024101,2.95647529 88.3322099,3.31846098 C88.520572,3.49730204 88.6237178,3.75034641 88.6150715,4.01239633 C88.626437,4.2809881 88.5233266,4.54149633 88.3322099,4.72704616 C87.9024101,5.08903185 87.2805469,5.08903185 86.8507472,4.72704616 L86.8507472,4.72704616 Z M87.0318601,16.5198042 C86.881054,16.3713899 86.8015107,16.1632922 86.8141176,15.9501558 L86.8141176,7.79900473 C86.800954,7.5857799 86.8805849,7.37745276 87.0318601,7.22935631 C87.1846915,7.08860831 87.3855293,7.01426744 87.5914785,7.02221143 C87.7945532,7.01315252 87.992637,7.08783179 88.1409221,7.22935631 C88.2849266,7.3813473 88.3588779,7.58835817 88.3444197,7.79900473 L88.3444197,15.9501558 C88.3623355,16.1637517 88.2880541,16.3747112 88.1409221,16.52809 C87.9890088,16.6621887 87.7923591,16.7318789 87.5914785,16.7228062 C87.3855261,16.7315477 87.1842447,16.6587972 87.0298251,16.5198042 L87.0318601,16.5198042 Z" id="Shape"></path>
                                <path d="M92.6667091,16.5488045 C92.1754769,16.4206819 91.7056881,16.2189267 91.2727504,15.9501558 C91.0881576,15.8342783 90.9243617,15.6871621 90.7884261,15.5151515 C90.690815,15.3703366 90.6409323,15.1976958 90.6459777,15.0221467 C90.639807,14.8706098 90.6907664,14.7224019 90.7884261,14.6078569 C90.8811978,14.498845 91.0171622,14.4380093 91.1587917,14.442141 C91.4007222,14.4792136 91.6291948,14.5790892 91.822194,14.7321439 C92.1798475,14.9533602 92.5581689,15.1379316 92.9516057,15.2831492 C93.4015416,15.4313571 93.8727828,15.5013845 94.3455644,15.4902941 C95.0238898,15.4902941 95.5556969,15.3680787 95.9409857,15.1236477 C96.3073226,14.902179 96.5252022,14.4943813 96.508744,14.0609945 C96.521589,13.8152751 96.4496001,13.5727211 96.3052464,13.3753449 C96.1062804,13.1617006 95.8579197,13.0021797 95.5828299,12.9113404 C95.0946727,12.7346291 94.5939689,12.5961297 94.0850874,12.4970506 C92.9699205,12.2553816 92.1715315,11.9274022 91.6899205,11.5131124 C91.2062155,11.0976317 90.9399575,10.4767124 90.969539,9.83316746 C90.9607077,9.30652897 91.1199436,8.79118492 91.4233386,8.36451026 C91.7494546,7.92217823 92.1847487,7.57556294 92.6850238,7.35985759 C93.2632475,7.10741524 93.8874287,6.98245947 94.5165024,6.99321115 C94.9984919,6.99436901 95.4779573,7.0640917 95.9409857,7.20035603 C96.3750523,7.32321135 96.7871855,7.51549123 97.1619714,7.77000445 C97.5913514,8.07865032 97.8070588,8.39143909 97.8070588,8.73529959 C97.8103753,8.89133548 97.7558908,9.04292881 97.6544356,9.1599466 C97.5658569,9.26970321 97.4337871,9.33350376 97.2942448,9.33394829 C97.041231,9.29049497 96.8047514,9.17730017 96.6104928,9.00665938 C96.2930016,8.79440015 95.9563924,8.61336853 95.6052146,8.46601125 C95.2285249,8.32710432 94.8294812,8.26174756 94.4289984,8.27336651 C93.9228506,8.25272701 93.4235513,8.39794078 93.0045151,8.68765627 C92.6567186,8.9332602 92.4533617,9.3402595 92.4632114,9.77102399 C92.4533592,10.0163662 92.5250527,10.2579247 92.6667091,10.4566735 C92.852495,10.6550801 93.082997,10.8043922 93.3382512,10.8916778 C93.7718264,11.0647779 94.2200258,11.1972101 94.6772655,11.2873245 C95.3654277,11.4257041 96.0368229,11.6396228 96.679682,11.9253307 C97.5340324,12.257185 98.0710851,13.1227588 97.9983466,14.0506372 C98.0093531,14.8376415 97.6258801,15.576176 96.9808585,16.0102278 C96.3120297,16.5073755 95.4302067,16.7552589 94.3353895,16.7538779 C93.7727825,16.7594184 93.211855,16.6904829 92.6667091,16.5488045 L92.6667091,16.5488045 Z" id="Shape"></path>
                                <path d="M105.161463,16.103443 C105.172765,16.2984659 105.083279,16.4853581 104.925405,16.5964478 C104.708312,16.7177604 104.457774,16.7622083 104.213164,16.7228062 L103.70035,16.6834486 C102.689645,16.6061146 101.943487,16.2967782 101.461876,15.7554396 C100.980265,15.214101 100.740138,14.3965692 100.741494,13.3028442 L100.741494,8.455654 L99.4696343,8.455654 C99.2879593,8.46636056 99.1088465,8.40804673 98.9669952,8.29200955 C98.8462334,8.18152599 98.779887,8.02217257 98.7858824,7.8570053 C98.7798751,7.68336554 98.8455553,7.51509547 98.9669952,7.39300077 C99.1055971,7.27006831 99.2861425,7.2075678 99.4696343,7.21899907 L100.741494,7.21899907 L100.741494,5.03569203 C100.728061,4.8251932 100.801866,4.6185912 100.944992,4.46604361 C101.100601,4.32311724 101.305435,4.2486513 101.514785,4.25889873 C101.717715,4.2507747 101.915456,4.32532457 102.064229,4.46604361 C102.208012,4.61817531 102.281926,4.82508252 102.267727,5.03569203 L102.267727,7.21899907 L104.373927,7.21899907 C104.551512,7.21028732 104.72538,7.27275258 104.858251,7.39300077 C104.978945,7.51545008 105.04387,7.68367491 105.037329,7.8570053 C105.044124,8.02189365 104.978497,8.18131125 104.858251,8.29200955 C104.722207,8.40557764 104.549683,8.46387047 104.373927,8.455654 L102.277901,8.455654 L102.277901,13.3774164 C102.277901,14.0858518 102.42035,14.5981902 102.705246,14.9144314 C102.990143,15.2306725 103.41681,15.4074362 103.985246,15.4447223 L104.49806,15.4840798 C104.937615,15.5234373 105.161463,15.7305822 105.161463,16.103443 Z" id="Shape"></path>
                                <path d="M106.095517,16.505304 C105.975352,16.3833508 105.910471,16.2159906 105.916439,16.043371 C105.911283,15.86967 105.975958,15.7013444 106.095517,15.577295 C106.213855,15.4565756 106.37573,15.390665 106.543211,15.3950075 C106.705952,15.3904865 106.86287,15.4567897 106.974626,15.577295 C107.091555,15.7026261 107.153912,15.8706473 107.147599,16.043371 C107.155178,16.2150721 107.092558,16.3823006 106.974626,16.505304 C106.861085,16.6224367 106.704798,16.6862217 106.543211,16.6813772 C106.376623,16.6873632 106.214875,16.6237496 106.095517,16.505304 Z" id="Shape"></path>
                                <path d="M109.369793,16.3520168 C108.97776,16.115604 108.662804,15.7669054 108.464229,15.3494356 C108.031537,14.390886 108.031537,13.2878128 108.464229,12.3292633 C108.668429,11.9011086 108.98909,11.5416283 109.388108,11.2935389 C109.801415,11.0458879 110.274067,10.9196916 110.753577,10.9289639 C111.039196,10.9289182 111.32343,10.9693545 111.598092,11.0491079 C111.860907,11.119192 112.1091,11.2370913 112.330684,11.3971113 C112.442316,11.4665762 112.539739,11.5573055 112.617615,11.6643282 C112.672577,11.7506627 112.701575,11.8514555 112.701049,11.954331 C112.704676,12.0493067 112.675115,12.1425167 112.617615,12.217405 C112.563659,12.2839364 112.482556,12.3213927 112.397838,12.318906 C112.339441,12.3174765 112.282227,12.3018513 112.23097,12.2733341 C112.178039,12.2478993 112.127614,12.2173797 112.080382,12.1821904 C112.053236,12.1614999 112.024674,12.1428094 111.994913,12.1262613 C111.819835,12.0067565 111.63459,11.9034615 111.441399,11.8176154 C111.236506,11.736919 111.017975,11.6982019 110.798347,11.7036857 C110.31108,11.6774307 109.840281,11.8870973 109.528521,12.2691912 C109.224632,12.643433 109.073365,13.1654381 109.074722,13.8352065 C109.076078,14.504975 109.227345,15.0214562 109.528521,15.3846502 C109.846031,15.7568933 110.314794,15.9587705 110.798347,15.9315127 C111.021957,15.9371234 111.244506,15.898429 111.453609,15.817583 C111.648094,15.7344454 111.83359,15.6310107 112.007122,15.5089372 C112.088521,15.4571509 112.167886,15.4115791 112.241145,15.3722215 C112.300056,15.3394001 112.36539,15.3202977 112.432432,15.3162924 C112.511857,15.317046 112.586676,15.3543642 112.63593,15.4177934 C112.692511,15.4931747 112.721962,15.5860387 112.719364,15.6808674 C112.720616,15.7761398 112.692895,15.8694754 112.64,15.9480843 C112.560927,16.0555106 112.462094,16.1462661 112.348998,16.2153012 C112.117147,16.3714799 111.862278,16.4889608 111.594022,16.5633046 C111.305171,16.649501 111.005745,16.6934414 110.704738,16.6938059 C110.237653,16.7041977 109.776465,16.5861188 109.369793,16.3520168 L109.369793,16.3520168 Z" id="Shape"></path>
                                <path d="M114.731955,16.3520168 C114.338196,16.1143613 114.022387,15.7633401 113.824356,15.3432213 C113.399244,14.3750551 113.399244,13.2684291 113.824356,12.300263 C114.022412,11.8806978 114.338263,11.5303506 114.731955,11.2935389 C115.144873,11.0515089 115.614946,10.9290191 116.09132,10.9393211 C116.569566,10.9295607 117.041463,11.0519761 117.456789,11.2935389 C117.852537,11.5290194 118.170037,11.879623 118.368458,12.300263 C118.79357,13.2684291 118.79357,14.3750551 118.368458,15.3432213 C118.170163,15.7644829 117.852682,16.1157873 117.456789,16.3520168 C117.041261,16.592857 116.569376,16.7145534 116.09132,16.7041631 C115.615137,16.7150941 115.145076,16.5933239 114.731955,16.3520168 L114.731955,16.3520168 Z M117.328585,15.4012218 C117.615517,15.0387183 117.757965,14.5146417 117.757965,13.8227778 C117.757965,13.1309139 117.613482,12.623409 117.32248,12.2546911 C117.006048,11.9035637 116.559418,11.7036689 116.09132,11.7036689 C115.623221,11.7036689 115.176591,11.9035637 114.860159,12.2546911 C114.569836,12.623409 114.423996,13.1461046 114.42263,13.8227778 C114.421282,14.4994511 114.565087,15.0235277 114.854054,15.3950075 C115.175157,15.7422372 115.622846,15.9391161 116.09132,15.9391161 C116.559793,15.9391161 117.007482,15.7422372 117.328585,15.3950075 L117.328585,15.4012218 Z" id="Shape"></path>
                                <path d="M127.932846,13.1391997 L127.932846,16.2256585 C127.940588,16.3510653 127.895435,16.4738833 127.808712,16.5633046 C127.720471,16.6447191 127.604109,16.6871816 127.485151,16.6813772 C127.364471,16.6863937 127.246491,16.6441382 127.155485,16.5633046 C127.065377,16.4757477 127.017734,16.3522321 127.025246,16.2256585 L127.025246,13.1702715 C127.025246,12.6606951 126.935707,12.2919772 126.75663,12.0641178 C126.544865,11.8232577 126.234773,11.6968446 125.918219,11.7223288 C125.508364,11.7016985 125.112019,11.8743869 124.843752,12.1904762 C124.56606,12.5489438 124.426409,12.9982373 124.451002,13.45406 L124.451002,16.2339442 C124.458213,16.360064 124.411462,16.483191 124.322798,16.5715904 C124.231792,16.652424 124.113812,16.6946795 123.993132,16.689663 C123.873614,16.6951174 123.756746,16.6527369 123.667536,16.5715904 C123.582431,16.4812536 123.538182,16.3588881 123.545437,16.2339442 L123.545437,13.1702715 C123.545437,12.6606951 123.455898,12.2919772 123.27682,12.0641178 C123.062384,11.8195965 122.746897,11.6928301 122.4262,11.7223288 C122.017968,11.7042299 121.623902,11.8765781 121.355803,12.1904762 C121.072164,12.5464266 120.927274,12.9962596 120.948808,13.45406 L120.948808,16.2339442 C120.956063,16.3588881 120.911814,16.4812536 120.826709,16.5715904 C120.737499,16.6527369 120.620631,16.6951174 120.501113,16.689663 C120.380432,16.6946795 120.262453,16.652424 120.171447,16.5715904 C120.082783,16.483191 120.036032,16.360064 120.043243,16.2339442 L120.043243,11.4178258 C120.037873,11.294451 120.08452,11.1746142 120.171447,11.0884654 C120.260012,11.0026739 120.378954,10.9570842 120.501113,10.9621071 C120.617206,10.9575681 120.730191,11.0008835 120.814499,11.0822511 C120.899074,11.1679911 120.944154,11.2860954 120.938633,11.4074685 L120.938633,11.954331 C121.089939,11.6407198 121.328404,11.3792532 121.62442,11.2023951 C121.930283,11.0226952 122.278659,10.9317118 122.631733,10.9393211 C123.482353,10.9393211 124.03858,11.3038961 124.300413,12.0330461 C124.456603,11.7010564 124.705845,11.4235616 125.016725,11.2355383 C125.348298,11.0352092 125.728053,10.932652 126.113577,10.9393211 C127.326423,10.9393211 127.932846,11.672614 127.932846,13.1391997 Z" id="Shape"></path>
                            </g>
                        </g>
                    </g>
                </g>
            </g>
        </g>
    </g>
</svg>